<mxfile host="app.diagrams.net" agent="Mozilla/5.0 (Windows NT 10.0; Win64; x64) AppleWebKit/537.36 (KHTML, like Gecko) Chrome/135.0.0.0 Safari/537.36" version="26.2.12">
  <diagram name="VM Infrastructure" id="8oN0qPMcyhiYN6_o2w6N">
    <mxGraphModel dx="1027" dy="389" grid="1" gridSize="10" guides="1" tooltips="1" connect="1" arrows="1" fold="1" page="1" pageScale="1" pageWidth="850" pageHeight="1100" math="0" shadow="0">
      <root>
        <mxCell id="0" />
        <mxCell id="1" parent="0" />
        <mxCell id="b59qAqlhpFBf0_vZaXXu-46" value="Kaizens VM Infrastructure and Services" style="text;html=1;strokeColor=none;fillColor=none;align=center;verticalAlign=middle;whiteSpace=wrap;rounded=0;fontSize=18;fontStyle=1" parent="1" vertex="1">
          <mxGeometry x="250" y="20" width="600" height="30" as="geometry" />
        </mxCell>
        <mxCell id="b59qAqlhpFBf0_vZaXXu-47" value="KAIZENS-22-64-DEV-1&#xa;Windows Server 2022 64-bit &#xa; IP: 63.250.58.46&#xa;" style="swimlane;fontStyle=1;childLayout=stackLayout;horizontal=1;startSize=60;horizontalStack=0;resizeParent=1;resizeParentMax=0;resizeLast=0;collapsible=1;marginBottom=0;fillColor=#dae8fc;strokeColor=#6c8ebf;rounded=1;" parent="1" vertex="1">
          <mxGeometry x="100" y="80" width="280" height="300" as="geometry" />
        </mxCell>
        <mxCell id="b59qAqlhpFBf0_vZaXXu-48" value="Database Services" style="swimlane;fontStyle=1;childLayout=stackLayout;horizontal=1;startSize=30;horizontalStack=0;resizeParent=1;resizeParentMax=0;resizeLast=0;collapsible=1;marginBottom=0;fillColor=#f8cecc;strokeColor=#b85450;rounded=1;" parent="b59qAqlhpFBf0_vZaXXu-47" vertex="1">
          <mxGeometry y="60" width="280" height="150" as="geometry" />
        </mxCell>
        <mxCell id="b59qAqlhpFBf0_vZaXXu-49" value="KAIMIG_DEV&#xa;Oracle 19C | Port: 1521 | SID: DEVPDB    " style="text;strokeColor=#b85450;fillColor=#ffffff;align=left;verticalAlign=top;spacingLeft=4;spacingRight=4;overflow=hidden;rotatable=0;points=[[0,0.5],[1,0.5]];portConstraint=eastwest;" parent="b59qAqlhpFBf0_vZaXXu-48" vertex="1">
          <mxGeometry y="30" width="280" height="40" as="geometry" />
        </mxCell>
        <mxCell id="b59qAqlhpFBf0_vZaXXu-50" value="KAIMIG_TEST&#xa;Oracle 19C | Port: 1521 | SID: TESTPDB" style="text;strokeColor=#b85450;fillColor=#ffffff;align=left;verticalAlign=top;spacingLeft=4;spacingRight=4;overflow=hidden;rotatable=0;points=[[0,0.5],[1,0.5]];portConstraint=eastwest;" parent="b59qAqlhpFBf0_vZaXXu-48" vertex="1">
          <mxGeometry y="70" width="280" height="40" as="geometry" />
        </mxCell>
        <mxCell id="b59qAqlhpFBf0_vZaXXu-112" value="KAIMIG_PROD&#xa;Oracle 19C | Port: 1521 | SID: PRODPDB" style="text;strokeColor=#b85450;fillColor=#ffffff;align=left;verticalAlign=top;spacingLeft=4;spacingRight=4;overflow=hidden;rotatable=0;points=[[0,0.5],[1,0.5]];portConstraint=eastwest;" parent="b59qAqlhpFBf0_vZaXXu-48" vertex="1">
          <mxGeometry y="110" width="280" height="40" as="geometry" />
        </mxCell>
        <mxCell id="b59qAqlhpFBf0_vZaXXu-51" value="Tools" style="swimlane;fontStyle=1;childLayout=stackLayout;horizontal=1;startSize=30;horizontalStack=0;resizeParent=1;resizeParentMax=0;resizeLast=0;collapsible=1;marginBottom=0;fillColor=#fff2cc;strokeColor=#d6b656;rounded=1;" parent="b59qAqlhpFBf0_vZaXXu-47" vertex="1">
          <mxGeometry y="210" width="280" height="90" as="geometry" />
        </mxCell>
        <mxCell id="b59qAqlhpFBf0_vZaXXu-52" value="Kaimig&#xa;Version: 2.5 | Web Port: 8081&#xa;Database Connection: KAIMIG_DEV, KAIMIG_TEST" style="text;strokeColor=#d6b656;fillColor=#ffffff;align=left;verticalAlign=top;spacingLeft=4;spacingRight=4;overflow=hidden;rotatable=0;points=[[0,0.5],[1,0.5]];portConstraint=eastwest;" parent="b59qAqlhpFBf0_vZaXXu-51" vertex="1">
          <mxGeometry y="30" width="280" height="60" as="geometry" />
        </mxCell>
        <mxCell id="b59qAqlhpFBf0_vZaXXu-53" value="KAIZENS-22-64-DEV-5&#xa;Windows Server 2022 64-bit&#xa;IP: 103.241.64.56&#xa;Hostname: CWM444.kaizensglobal.com" style="swimlane;fontStyle=1;childLayout=stackLayout;horizontal=1;startSize=60;horizontalStack=0;resizeParent=1;resizeParentMax=0;resizeLast=0;collapsible=1;marginBottom=0;fillColor=#dae8fc;strokeColor=#6c8ebf;rounded=1;" parent="1" vertex="1">
          <mxGeometry x="410" y="80" width="300" height="220" as="geometry" />
        </mxCell>
        <mxCell id="b59qAqlhpFBf0_vZaXXu-54" value="Database Services" style="swimlane;fontStyle=1;childLayout=stackLayout;horizontal=1;startSize=30;horizontalStack=0;resizeParent=1;resizeParentMax=0;resizeLast=0;collapsible=1;marginBottom=0;fillColor=#f8cecc;strokeColor=#b85450;rounded=1;" parent="b59qAqlhpFBf0_vZaXXu-53" vertex="1">
          <mxGeometry y="60" width="300" height="80" as="geometry" />
        </mxCell>
        <mxCell id="b59qAqlhpFBf0_vZaXXu-55" value="IFS_DEV&#xa;Oracle 19C | Port: 1521 | SID: IFSTPDB&#xa;Purpose: IFS Cloud Database | Windows Management Server" style="text;strokeColor=#b85450;fillColor=#ffffff;align=left;verticalAlign=top;spacingLeft=4;spacingRight=4;overflow=hidden;rotatable=0;points=[[0,0.5],[1,0.5]];portConstraint=eastwest;" parent="b59qAqlhpFBf0_vZaXXu-54" vertex="1">
          <mxGeometry y="30" width="300" height="50" as="geometry" />
        </mxCell>
        <mxCell id="b59qAqlhpFBf0_vZaXXu-56" value="Tools" style="swimlane;fontStyle=1;childLayout=stackLayout;horizontal=1;startSize=30;horizontalStack=0;resizeParent=1;resizeParentMax=0;resizeLast=0;collapsible=1;marginBottom=0;fillColor=#fff2cc;strokeColor=#d6b656;rounded=1;" parent="b59qAqlhpFBf0_vZaXXu-53" vertex="1">
          <mxGeometry y="140" width="300" height="80" as="geometry" />
        </mxCell>
        <mxCell id="b59qAqlhpFBf0_vZaXXu-58" value="Windows Management&#xa;Admin Tools | Remote Access: RDP 3389" style="text;strokeColor=#d6b656;fillColor=#ffffff;align=left;verticalAlign=top;spacingLeft=4;spacingRight=4;overflow=hidden;rotatable=0;points=[[0,0.5],[1,0.5]];portConstraint=eastwest;" parent="b59qAqlhpFBf0_vZaXXu-56" vertex="1">
          <mxGeometry y="30" width="300" height="50" as="geometry" />
        </mxCell>
        <mxCell id="b59qAqlhpFBf0_vZaXXu-59" value="KAIZENS-DEV-MT-1&#xa;Ubuntu Server 20.04 LTS 64-bit&#xa;IP: 212.115.108.194&#xa;Hostname: dev-mt-1.kaizensglobal.com" style="swimlane;fontStyle=1;childLayout=stackLayout;horizontal=1;startSize=60;horizontalStack=0;resizeParent=1;resizeParentMax=0;resizeLast=0;collapsible=1;marginBottom=0;fillColor=#dae8fc;strokeColor=#6c8ebf;rounded=1;" parent="1" vertex="1">
          <mxGeometry x="760" y="80" width="300" height="170" as="geometry" />
        </mxCell>
        <mxCell id="b59qAqlhpFBf0_vZaXXu-60" value="Middleware Services" style="swimlane;fontStyle=1;childLayout=stackLayout;horizontal=1;startSize=30;horizontalStack=0;resizeParent=1;resizeParentMax=0;resizeLast=0;collapsible=1;marginBottom=0;fillColor=#d5e8d4;strokeColor=#82b366;rounded=1;" parent="b59qAqlhpFBf0_vZaXXu-59" vertex="1">
          <mxGeometry y="60" width="300" height="110" as="geometry" />
        </mxCell>
        <mxCell id="b59qAqlhpFBf0_vZaXXu-61" value="Kubernetes Cluster&#xa;Version: 1.22&#xa;Ports: 6443, 10250-10252&#xa;Purpose: Container Orchestration&#xa;Database Connection: IFS_DEV" style="text;strokeColor=#82b366;fillColor=#ffffff;align=left;verticalAlign=top;spacingLeft=4;spacingRight=4;overflow=hidden;rotatable=0;points=[[0,0.5],[1,0.5]];portConstraint=eastwest;" parent="b59qAqlhpFBf0_vZaXXu-60" vertex="1">
          <mxGeometry y="30" width="300" height="80" as="geometry" />
        </mxCell>
        <mxCell id="IUaWh-VvHLeHcXC0Rnm6-1" value="" style="edgeStyle=orthogonalEdgeStyle;rounded=0;orthogonalLoop=1;jettySize=auto;html=1;" edge="1" parent="1" source="b59qAqlhpFBf0_vZaXXu-61" target="b59qAqlhpFBf0_vZaXXu-55">
          <mxGeometry relative="1" as="geometry" />
        </mxCell>
      </root>
    </mxGraphModel>
  </diagram>
</mxfile>
